Coordinates
version=1
nRows=47
nColumns=21
inDegrees=no
endheader
time	ra_wr_s_p	ra_wr_e_f	ra_cmc1_ad_ab	ra_cmc1_f_e	ra_mcp1_f_e	ra_ip1_f_e	ra_mcp2_e_f	ra_pip2_e_f	ra_dip2_e_f	ra_mcp3_e_f	ra_pip3_e_f	ra_dip3_e_f	ra_mcp4_e_f	ra_pip4_e_f	ra_dip4_e_f	ra_mcp5_e_f	ra_pip5_e_f	ra_dip5_e_f	ra_el_e_f	ra_wr_ad_ab
0.125000	0.000000	0.087300	0.409019	0.409019	-0.368103	-0.736206	0.736206	0.981608	0.736206	0.736206	0.981608	0.736206	0.736206	0.981608	0.736206	0.736206	0.981608	0.736206	1.570796	0.085000
0.126000	0.000000	0.087300	0.408446	0.408446	-0.367588	-0.735175	0.735175	0.980234	0.735175	0.735175	0.980234	0.735175	0.735175	0.980234	0.735175	0.735175	0.980234	0.735175	1.570796	0.085000
0.127000	0.000000	0.087300	0.407865	0.407865	-0.367065	-0.734129	0.734129	0.978839	0.734129	0.734129	0.978839	0.734129	0.734129	0.978839	0.734129	0.734129	0.978839	0.734129	1.570796	0.085000
0.128000	0.000000	0.087300	0.407275	0.407275	-0.366534	-0.733068	0.733068	0.977424	0.733068	0.733068	0.977424	0.733068	0.733068	0.977424	0.733068	0.733068	0.977424	0.733068	1.570796	0.085000
0.129000	0.000000	0.087300	0.406677	0.406677	-0.365995	-0.731991	0.731991	0.975988	0.731991	0.731991	0.975988	0.731991	0.731991	0.975988	0.731991	0.731991	0.975988	0.731991	1.570796	0.085000
0.130000	0.000000	0.087300	0.406070	0.406070	-0.365449	-0.730898	0.730898	0.974531	0.730898	0.730898	0.974531	0.730898	0.730898	0.974531	0.730898	0.730898	0.974531	0.730898	1.570796	0.085000
0.131000	0.000000	0.087300	0.405454	0.405454	-0.364895	-0.729790	0.729790	0.973054	0.729790	0.729790	0.973054	0.729790	0.729790	0.973054	0.729790	0.729790	0.973054	0.729790	1.570796	0.085000
0.132000	0.000000	0.087300	0.404830	0.404830	-0.364333	-0.728666	0.728666	0.971555	0.728666	0.728666	0.971555	0.728666	0.728666	0.971555	0.728666	0.728666	0.971555	0.728666	1.570796	0.085000
0.133000	0.000000	0.087300	0.404197	0.404197	-0.363763	-0.727526	0.727526	0.970035	0.727526	0.727526	0.970035	0.727526	0.727526	0.970035	0.727526	0.727526	0.970035	0.727526	1.570796	0.085000
0.134000	0.000000	0.087300	0.403554	0.403554	-0.363185	-0.726370	0.726370	0.968493	0.726370	0.726370	0.968493	0.726370	0.726370	0.968493	0.726370	0.726370	0.968493	0.726370	1.570796	0.085000
0.135000	0.000000	0.087300	0.402903	0.402903	-0.362599	-0.725198	0.725198	0.966930	0.725198	0.725198	0.966930	0.725198	0.725198	0.966930	0.725198	0.725198	0.966930	0.725198	1.570796	0.085000
0.136000	0.000000	0.087300	0.402242	0.402242	-0.362004	-0.724009	0.724009	0.965345	0.724009	0.724009	0.965345	0.724009	0.724009	0.965345	0.724009	0.724009	0.965345	0.724009	1.570796	0.085000
0.137000	0.000000	0.087300	0.401573	0.401573	-0.361402	-0.722803	0.722803	0.963738	0.722803	0.722803	0.963738	0.722803	0.722803	0.963738	0.722803	0.722803	0.963738	0.722803	1.570796	0.085000
0.138000	0.000000	0.087300	0.400894	0.400894	-0.360791	-0.721581	0.721581	0.962109	0.721581	0.721581	0.962109	0.721581	0.721581	0.962109	0.721581	0.721581	0.962109	0.721581	1.570796	0.085000
0.139000	0.000000	0.087300	0.400206	0.400206	-0.360171	-0.720343	0.720343	0.960457	0.720343	0.720343	0.960457	0.720343	0.720343	0.960457	0.720343	0.720343	0.960457	0.720343	1.570796	0.085000
0.140000	0.000000	0.087300	0.399508	0.399508	-0.359543	-0.719087	0.719087	0.958782	0.719087	0.719087	0.958782	0.719087	0.719087	0.958782	0.719087	0.719087	0.958782	0.719087	1.570796	0.085000
0.141000	0.000000	0.087300	0.398801	0.398801	-0.358907	-0.717814	0.717814	0.957085	0.717814	0.717814	0.957085	0.717814	0.717814	0.957085	0.717814	0.717814	0.957085	0.717814	1.570796	0.085000
0.142000	0.000000	0.087300	0.398084	0.398084	-0.358262	-0.716524	0.716524	0.955365	0.716524	0.716524	0.955365	0.716524	0.716524	0.955365	0.716524	0.716524	0.955365	0.716524	1.570796	0.085000
0.143000	0.000000	0.087300	0.397358	0.397358	-0.357608	-0.715216	0.715216	0.953622	0.715216	0.715216	0.953622	0.715216	0.715216	0.953622	0.715216	0.715216	0.953622	0.715216	1.570796	0.085000
0.144000	0.000000	0.087300	0.396621	0.396621	-0.356946	-0.713891	0.713891	0.951855	0.713891	0.713891	0.951855	0.713891	0.713891	0.951855	0.713891	0.713891	0.951855	0.713891	1.570796	0.085000
0.145000	0.000000	0.087300	0.395876	0.395876	-0.356274	-0.712549	0.712549	0.950065	0.712549	0.712549	0.950065	0.712549	0.712549	0.950065	0.712549	0.712549	0.950065	0.712549	1.570796	0.085000
0.146000	0.000000	0.087300	0.395120	0.395120	-0.355594	-0.711188	0.711188	0.948251	0.711188	0.711188	0.948251	0.711188	0.711188	0.948251	0.711188	0.711188	0.948251	0.711188	1.570796	0.085000
0.147000	0.000000	0.087300	0.394354	0.394354	-0.354905	-0.709810	0.709810	0.946414	0.709810	0.709810	0.946414	0.709810	0.709810	0.946414	0.709810	0.709810	0.946414	0.709810	1.570796	0.085000
0.148000	0.000000	0.087300	0.393578	0.393578	-0.354207	-0.708414	0.708414	0.944552	0.708414	0.708414	0.944552	0.708414	0.708414	0.944552	0.708414	0.708414	0.944552	0.708414	1.570796	0.085000
0.149000	0.000000	0.087300	0.392793	0.392793	-0.353500	-0.707000	0.707000	0.942666	0.707000	0.707000	0.942666	0.707000	0.707000	0.942666	0.707000	0.707000	0.942666	0.707000	1.570796	0.085000
0.150000	0.000000	0.087300	0.391997	0.391997	-0.352784	-0.705567	0.705567	0.940756	0.705567	0.705567	0.940756	0.705567	0.705567	0.940756	0.705567	0.705567	0.940756	0.705567	1.570796	0.085000
0.151000	0.000000	0.087300	0.391191	0.391191	-0.352058	-0.704116	0.704116	0.938822	0.704116	0.704116	0.938822	0.704116	0.704116	0.938822	0.704116	0.704116	0.938822	0.704116	1.570796	0.085000
0.152000	0.000000	0.087300	0.390374	0.390374	-0.351324	-0.702647	0.702647	0.936863	0.702647	0.702647	0.936863	0.702647	0.702647	0.936863	0.702647	0.702647	0.936863	0.702647	1.570796	0.085000
0.153000	0.000000	0.087300	0.389548	0.389548	-0.350580	-0.701159	0.701159	0.934879	0.701159	0.701159	0.934879	0.701159	0.701159	0.934879	0.701159	0.701159	0.934879	0.701159	1.570796	0.085000
0.154000	0.000000	0.087300	0.388711	0.388711	-0.349826	-0.699652	0.699652	0.932870	0.699652	0.699652	0.932870	0.699652	0.699652	0.932870	0.699652	0.699652	0.932870	0.699652	1.570796	0.085000
0.155000	0.000000	0.087300	0.387863	0.387863	-0.349063	-0.698127	0.698127	0.930836	0.698127	0.698127	0.930836	0.698127	0.698127	0.930836	0.698127	0.698127	0.930836	0.698127	1.570796	0.085000
0.156000	0.000000	0.087300	0.387005	0.387005	-0.348291	-0.696583	0.696583	0.928777	0.696583	0.696583	0.928777	0.696583	0.696583	0.928777	0.696583	0.696583	0.928777	0.696583	1.570796	0.085000
0.157000	0.000000	0.087300	0.386136	0.386136	-0.347510	-0.695019	0.695019	0.926692	0.695019	0.695019	0.926692	0.695019	0.695019	0.926692	0.695019	0.695019	0.926692	0.695019	1.570796	0.085000
0.158000	0.000000	0.087300	0.385257	0.385257	-0.346718	-0.693436	0.693436	0.924582	0.693436	0.693436	0.924582	0.693436	0.693436	0.924582	0.693436	0.693436	0.924582	0.693436	1.570796	0.085000
0.159000	0.000000	0.087300	0.384367	0.384367	-0.345917	-0.691835	0.691835	0.922446	0.691835	0.691835	0.922446	0.691835	0.691835	0.922446	0.691835	0.691835	0.922446	0.691835	1.570796	0.085000
0.160000	0.000000	0.087300	0.383467	0.383467	-0.345107	-0.690213	0.690213	0.920284	0.690213	0.690213	0.920284	0.690213	0.690213	0.920284	0.690213	0.690213	0.920284	0.690213	1.570796	0.085000
0.161000	0.000000	0.087300	0.382555	0.382555	-0.344286	-0.688573	0.688573	0.918097	0.688573	0.688573	0.918097	0.688573	0.688573	0.918097	0.688573	0.688573	0.918097	0.688573	1.570796	0.085000
0.162000	0.000000	0.087300	0.381633	0.381633	-0.343456	-0.686913	0.686913	0.915883	0.686913	0.686913	0.915883	0.686913	0.686913	0.915883	0.686913	0.686913	0.915883	0.686913	1.570796	0.085000
0.163000	0.000000	0.087300	0.380699	0.380699	-0.342616	-0.685233	0.685233	0.913644	0.685233	0.685233	0.913644	0.685233	0.685233	0.913644	0.685233	0.685233	0.913644	0.685233	1.570796	0.085000
0.164000	0.000000	0.087300	0.379755	0.379755	-0.341767	-0.683533	0.683533	0.911378	0.683533	0.683533	0.911378	0.683533	0.683533	0.911378	0.683533	0.683533	0.911378	0.683533	1.570796	0.085000
0.165000	0.000000	0.087300	0.378800	0.378800	-0.340907	-0.681814	0.681814	0.909085	0.681814	0.681814	0.909085	0.681814	0.681814	0.909085	0.681814	0.681814	0.909085	0.681814	1.570796	0.085000
0.166000	0.000000	0.087300	0.377834	0.377834	-0.340037	-0.680075	0.680075	0.906766	0.680075	0.680075	0.906766	0.680075	0.680075	0.906766	0.680075	0.680075	0.906766	0.680075	1.570796	0.085000
0.167000	0.000000	0.087300	0.376856	0.376856	-0.339158	-0.678316	0.678316	0.904421	0.678316	0.678316	0.904421	0.678316	0.678316	0.904421	0.678316	0.678316	0.904421	0.678316	1.570796	0.085000
0.168000	0.000000	0.087300	0.375868	0.375868	-0.338268	-0.676537	0.676537	0.902049	0.676537	0.676537	0.902049	0.676537	0.676537	0.902049	0.676537	0.676537	0.902049	0.676537	1.570796	0.085000
0.169000	0.000000	0.087300	0.374869	0.374869	-0.337369	-0.674738	0.674738	0.899650	0.674738	0.674738	0.899650	0.674738	0.674738	0.899650	0.674738	0.674738	0.899650	0.674738	1.570796	0.085000
0.170000	0.000000	0.087300	0.373858	0.373858	-0.336459	-0.672918	0.672918	0.897224	0.672918	0.672918	0.897224	0.672918	0.672918	0.897224	0.672918	0.672918	0.897224	0.672918	1.570796	0.085000
0.171000	0.000000	0.087300	0.372836	0.372836	-0.335539	-0.671079	0.671079	0.894772	0.671079	0.671079	0.894772	0.671079	0.671079	0.894772	0.671079	0.671079	0.894772	0.671079	1.570796	0.085000
